<mxfile host="app.diagrams.net" agent="Mozilla/5.0 (Windows NT 10.0; Win64; x64) AppleWebKit/537.36 (KHTML, like Gecko) Chrome/134.0.0.0 Safari/537.36" version="26.1.3">
  <diagram name="Pagina-1" id="olI59oHaWYNwMebBQ4Hc">
    <mxGraphModel dx="1050" dy="522" grid="1" gridSize="10" guides="1" tooltips="1" connect="1" arrows="1" fold="1" page="1" pageScale="1" pageWidth="2339" pageHeight="3300" math="0" shadow="0">
      <root>
        <mxCell id="0" />
        <mxCell id="1" parent="0" />
        <mxCell id="f3K98u_8HfmXeUA_kZeC-1" value="&lt;font style=&quot;font-size: 18px;&quot; face=&quot;Comic Sans MS&quot;&gt;&lt;b&gt;&lt;i&gt;MerkleRoot&lt;/i&gt;&lt;/b&gt;&lt;/font&gt;" style="rounded=1;whiteSpace=wrap;html=1;" vertex="1" parent="1">
          <mxGeometry x="420" y="140" width="120" height="60" as="geometry" />
        </mxCell>
        <mxCell id="f3K98u_8HfmXeUA_kZeC-2" value="h&lt;sub&gt;5678 &lt;/sub&gt;= H(" style="rounded=1;whiteSpace=wrap;html=1;" vertex="1" parent="1">
          <mxGeometry x="639.9955555555555" y="260" width="104.44444444444444" height="50" as="geometry" />
        </mxCell>
        <mxCell id="f3K98u_8HfmXeUA_kZeC-3" value="h&lt;sub&gt;1234 &lt;/sub&gt;= H(h&lt;sub&gt;12&lt;/sub&gt;&amp;nbsp;|| h&lt;sub&gt;34&lt;/sub&gt;)" style="rounded=1;whiteSpace=wrap;html=1;" vertex="1" parent="1">
          <mxGeometry x="200" y="260" width="120" height="50" as="geometry" />
        </mxCell>
        <mxCell id="f3K98u_8HfmXeUA_kZeC-6" value="h&lt;sub&gt;78&amp;nbsp;&lt;/sub&gt;= H(h&lt;span style=&quot;font-size: 10px;&quot;&gt;&lt;sub&gt;7&lt;/sub&gt;&lt;/span&gt;&amp;nbsp;|| h&lt;span style=&quot;font-size: 10px;&quot;&gt;&lt;sub&gt;8&lt;/sub&gt;&lt;/span&gt;)" style="rounded=1;whiteSpace=wrap;html=1;" vertex="1" parent="1">
          <mxGeometry x="744.4438461538463" y="380" width="93.84615384615384" height="40" as="geometry" />
        </mxCell>
        <mxCell id="f3K98u_8HfmXeUA_kZeC-7" value="h&lt;sub&gt;56&amp;nbsp;&lt;/sub&gt;= H(h&lt;span style=&quot;font-size: 10px;&quot;&gt;&lt;sub&gt;5&lt;/sub&gt;&lt;/span&gt;&amp;nbsp;|| h&lt;span style=&quot;font-size: 10px;&quot;&gt;&lt;sub&gt;6&lt;/sub&gt;&lt;/span&gt;)" style="rounded=1;whiteSpace=wrap;html=1;" vertex="1" parent="1">
          <mxGeometry x="546.1535897435898" y="380" width="93.84615384615384" height="40" as="geometry" />
        </mxCell>
        <mxCell id="f3K98u_8HfmXeUA_kZeC-8" value="h&lt;sub&gt;34 &lt;/sub&gt;= H(h&lt;sub&gt;3&lt;/sub&gt;&amp;nbsp;|| h&lt;sub&gt;4&lt;/sub&gt;)" style="rounded=1;whiteSpace=wrap;html=1;" vertex="1" parent="1">
          <mxGeometry x="314.4407692307692" y="380" width="93.84615384615384" height="40" as="geometry" />
        </mxCell>
        <mxCell id="f3K98u_8HfmXeUA_kZeC-9" value="h&lt;span style=&quot;font-size: 10px;&quot;&gt;&lt;sub&gt;12&amp;nbsp;&lt;/sub&gt;= H(h&lt;sub&gt;1&amp;nbsp;&lt;/sub&gt;|| h&lt;sub&gt;2&lt;/sub&gt;)&lt;/span&gt;" style="rounded=1;whiteSpace=wrap;html=1;" vertex="1" parent="1">
          <mxGeometry x="116.15" y="380" width="93.84615384615384" height="40" as="geometry" />
        </mxCell>
        <mxCell id="f3K98u_8HfmXeUA_kZeC-12" value="h&lt;sub&gt;3&amp;nbsp;&lt;/sub&gt;= H(t&lt;span style=&quot;font-size: 10px;&quot;&gt;&lt;sub&gt;3&lt;/sub&gt;&lt;/span&gt;)" style="rounded=1;whiteSpace=wrap;html=1;" vertex="1" parent="1">
          <mxGeometry x="280.00205607476636" y="470" width="74.01869158878506" height="30" as="geometry" />
        </mxCell>
        <mxCell id="f3K98u_8HfmXeUA_kZeC-13" value="h&lt;sub&gt;2&amp;nbsp;&lt;/sub&gt;= H(t&lt;span style=&quot;font-size: 10px;&quot;&gt;&lt;sub&gt;2&lt;/sub&gt;&lt;/span&gt;)" style="rounded=1;whiteSpace=wrap;html=1;" vertex="1" parent="1">
          <mxGeometry x="169.9969158878505" y="470" width="74.01869158878506" height="30" as="geometry" />
        </mxCell>
        <mxCell id="f3K98u_8HfmXeUA_kZeC-14" value="h&lt;sub&gt;1 &lt;/sub&gt;= H(t&lt;sub&gt;1&lt;/sub&gt;)" style="rounded=1;whiteSpace=wrap;html=1;" vertex="1" parent="1">
          <mxGeometry x="70" y="470" width="74.01869158878506" height="30" as="geometry" />
        </mxCell>
        <mxCell id="f3K98u_8HfmXeUA_kZeC-15" value="h&lt;sub&gt;8&lt;/sub&gt;&lt;span style=&quot;font-size: 10px;&quot;&gt; &lt;/span&gt;= H(t&lt;span style=&quot;font-size: 10px;&quot;&gt;&lt;sub&gt;8&lt;/sub&gt;&lt;/span&gt;)" style="rounded=1;whiteSpace=wrap;html=1;" vertex="1" parent="1">
          <mxGeometry x="800.001308411215" y="470" width="74.01869158878506" height="30" as="geometry" />
        </mxCell>
        <mxCell id="f3K98u_8HfmXeUA_kZeC-16" value="h&lt;sub&gt;7&amp;nbsp;&lt;/sub&gt;= H(t&lt;span style=&quot;font-size: 10px;&quot;&gt;&lt;sub&gt;7&lt;/sub&gt;&lt;/span&gt;)" style="rounded=1;whiteSpace=wrap;html=1;" vertex="1" parent="1">
          <mxGeometry x="709.9996261682244" y="470" width="74.01869158878506" height="30" as="geometry" />
        </mxCell>
        <mxCell id="f3K98u_8HfmXeUA_kZeC-17" value="h&lt;sub&gt;6&amp;nbsp;&lt;/sub&gt;= H(t&lt;span style=&quot;font-size: 10px;&quot;&gt;&lt;sub&gt;6&lt;/sub&gt;&lt;/span&gt;)" style="rounded=1;whiteSpace=wrap;html=1;" vertex="1" parent="1">
          <mxGeometry x="599.9992523364486" y="470" width="74.01869158878506" height="30" as="geometry" />
        </mxCell>
        <mxCell id="f3K98u_8HfmXeUA_kZeC-18" value="h&lt;sub&gt;5&amp;nbsp;&lt;/sub&gt;= H(t&lt;span style=&quot;font-size: 10px;&quot;&gt;&lt;sub&gt;5&lt;/sub&gt;&lt;/span&gt;)" style="rounded=1;whiteSpace=wrap;html=1;" vertex="1" parent="1">
          <mxGeometry x="510.00233644859816" y="470" width="74.01869158878506" height="30" as="geometry" />
        </mxCell>
        <mxCell id="f3K98u_8HfmXeUA_kZeC-23" value="h&lt;sub&gt;4 &lt;/sub&gt;= H(t&lt;sub&gt;4&lt;/sub&gt;)" style="rounded=1;whiteSpace=wrap;html=1;" vertex="1" parent="1">
          <mxGeometry x="370.00205607476636" y="470" width="74.01869158878506" height="30" as="geometry" />
        </mxCell>
      </root>
    </mxGraphModel>
  </diagram>
</mxfile>
